<?xml version="1.0" encoding="utf-8"?>
<!-- Generator: Adobe Illustrator 16.0.0, SVG Export Plug-In . SVG Version: 6.00 Build 0)  -->
<!DOCTYPE svg PUBLIC "-//W3C//DTD SVG 1.1//EN" "http://www.w3.org/Graphics/SVG/1.1/DTD/svg11.dtd">
<svg version="1.1" id="Layer_1" xmlns="http://www.w3.org/2000/svg" xmlns:xlink="http://www.w3.org/1999/xlink" x="0px" y="0px"
	 width="669px" height="175px" viewBox="0 0 669 175" enable-background="new 0 0 669 175" xml:space="preserve">
<path fill="#6f42c1" d="M36.621,95.433c2.283-0.173,4.311-0.316,7.487-0.316l1.452-0.007c6.884-0.063,21.157-0.174,29.537,8.132
	c4.428,4.388,6.673,10.688,6.673,18.725c0,20.931-17.726,25.326-32.595,25.326c-5.45,0-9.825-0.366-12.554-0.676V95.433z
	 M50.125,73.276c-4.882,0.399-8.914,0.417-13.504,0.275v-45.64c3.994-0.51,6.39-0.659,10.129-0.659
	c12.66,0,27.753,4.087,27.753,23.564C74.503,56.767,72.124,70.876,50.125,73.276 M83.073,82.097
	C94.256,76.49,107.55,65.754,107.55,46.41c0-13.158-6.248-24.18-17.584-31.022C77.22,7.543,59.35,6.536,45.207,6.536
	c-12.697,0-30.11,1.277-35.864,3.201c-4.69,1.755-5.547,4.455-5.547,9.138v137.23c0,5.745,0.851,8.383,6.112,9.846
	c4.081,1.201,19.003,2.934,35.299,2.934c20.014,0,33.808-2.01,44.776-6.538c16.727-7.467,25.938-21.101,25.938-38.399
	C115.921,103.329,103.643,87.724,83.073,82.097"/>
<path fill="#6f42c1" d="M325.315,74.307l-10.377-5.016c-15.629-7.593-25.208-12.901-25.208-25.742
	c0-11.46,9.448-13.867,17.374-13.867c3.568,0,6.757,0.886,9.709,2.688c0.694,0.443,1.332,0.882,2.059,1.514
	c0.607,0.428,1.139,0.902,1.84,1.658c0.423,0.365,0.789,0.731,1.19,1.192c0.658,0.725,1.254,1.456,1.815,2.225
	c0.434,0.563,0.811,1.124,1.19,1.791c1.135,1.737,2.008,3.482,2.759,4.978c0.384,0.691,0.734,1.361,1.073,2.005
	c2.418,4.61,4.703,8.939,13.218,7.651c2.846-0.527,9.732-3.236,11.778-4.051c7.311-2.926,5.564-9.076,4.989-11.097l-0.125-0.457
	c-0.578-2.203-1.538-5.527-3.132-8.956c-2.392-5.368-5.716-10.031-9.944-13.914c-5.239-4.362-11.841-7.704-19.073-9.663
	c-5.667-1.64-11.866-2.473-18.429-2.473c-29.275,0-48.945,17.967-48.945,44.707c0,27.502,22.252,39.751,30.909,44.514l12.542,6.421
	c17.298,9.1,27.739,14.594,27.739,29.012c0,10.093-6.214,14.995-18.998,14.995c-10.625,0-18.074-4.324-22.187-12.959
	c-0.721-1.287-1.328-2.717-1.942-4.153c-2.192-5.137-4.925-11.53-12.981-10.224c-1.95,0.268-5.942,1.627-12.557,4.28
	c-7.554,3.016-5.805,9.424-5.229,11.53l0.149,0.565c3.524,13.976,15.069,37.425,52.772,37.425c31.512,0,52.687-18.961,52.687-47.176
	C361.979,93.566,339.268,81.634,325.315,74.307"/>
<path fill="#6f42c1" d="M187.7,109.02c-6.055,0-11.445-3.1-13.282-7.118l0.507-1.522L187.7,62.052l12.775,38.327l0.508,1.522
	C199.145,105.92,193.757,109.02,187.7,109.02 M199.593,13.369c-1.321-2.863-1.979-3.305-5.284-3.305h-0.441h-12.333h-0.444
	c-3.302,0-3.962,0.442-5.283,3.305L122.06,159.632c-0.663,1.323-0.882,2.203-0.882,3.085c0,0.705,0.168,1.217,0.428,1.618
	c0.055,0.086,0.146,0.122,0.21,0.196c0.244,0.282,0.512,0.521,0.842,0.665c0.085,0.036,0.175,0.047,0.262,0.078
	c0.357,0.122,0.714,0.215,1.09,0.25c0.124,0.011,0.229,0.013,0.35,0.021c0.189,0.011,0.386,0.036,0.563,0.036h0.441h14.535h7.274
	c3.743,0,4.623-0.223,6.166-3.966l12.271-34.125c6.273,3.928,13.881,6.248,22.09,6.248c8.212,0,15.82-2.32,22.092-6.246
	l12.272,34.123c1.54,3.743,2.42,3.966,6.166,3.966h7.274h14.534h0.441c0.178,0,0.375-0.025,0.563-0.036
	c0.122-0.008,0.226-0.01,0.348-0.021c0.379-0.035,0.734-0.128,1.093-0.25c0.086-0.029,0.177-0.042,0.259-0.078
	c0.333-0.146,0.603-0.383,0.845-0.667c0.064-0.072,0.155-0.11,0.21-0.194c0.257-0.401,0.428-0.913,0.428-1.618
	c0-0.882-0.222-1.762-0.882-3.085L199.593,13.369z"/>
<path fill="#6f42c1" d="M598.753,109.02c-6.058,0-11.444-3.101-13.282-7.118l0.508-1.523l12.774-38.327l12.774,38.327l0.508,1.523
	C610.198,105.919,604.809,109.02,598.753,109.02 M664.394,159.631L610.646,13.368c-1.321-2.861-1.981-3.304-5.283-3.304h-0.441
	h-12.336h-0.44c-3.306,0-3.963,0.443-5.284,3.304l-53.748,146.263c-0.662,1.323-0.884,2.203-0.884,3.088
	c0,0.702,0.171,1.215,0.428,1.615c0.057,0.086,0.148,0.122,0.212,0.197c0.242,0.282,0.51,0.521,0.843,0.665
	c0.084,0.036,0.174,0.047,0.26,0.078c0.358,0.122,0.714,0.215,1.093,0.25c0.124,0.011,0.226,0.013,0.348,0.021
	c0.188,0.01,0.387,0.034,0.563,0.034h0.44h14.536h7.272c3.746,0,4.625-0.222,6.166-3.965l12.271-34.123
	c6.273,3.925,13.881,6.246,22.093,6.246c8.211,0,15.817-2.321,22.093-6.246l12.269,34.123c1.543,3.743,2.423,3.965,6.168,3.965
	h7.272h14.537h0.44c0.175,0,0.374-0.024,0.563-0.034c0.118-0.009,0.224-0.011,0.348-0.021c0.376-0.035,0.732-0.128,1.092-0.25
	c0.087-0.029,0.175-0.042,0.26-0.078c0.332-0.146,0.601-0.383,0.843-0.665c0.065-0.075,0.154-0.111,0.21-0.197
	c0.26-0.4,0.428-0.913,0.428-1.615C665.275,161.834,665.057,160.954,664.394,159.631"/>
<path fill="#6f42c1" d="M514.87,10.064h-4.838h-16.528h-4.398c-4.187,0-4.849,0.441-6.606,4.628l-31.868,54.587l-31.87-54.587
	c-1.759-4.187-2.42-4.628-6.607-4.628h-4.396h-16.529h-4.839c-3.523,0-4.621,0.441-4.621,4.187v146.704
	c0,4.185,1.098,4.625,5.284,4.625h4.176h13.222h0.225c4.187,0,4.847-0.884,4.847-5.065V56.042l34.938,63.309
	c1.166,2.837,2.217,4.278,4.087,4.812c0.536,0.166,1.188,0.239,1.981,0.246c0.038,0.002,0.06,0.014,0.1,0.014h0.003h0.007
	c0.037,0,0.06-0.014,0.1-0.014c0.791-0.007,1.442-0.08,1.979-0.246c1.871-0.533,2.921-1.975,4.087-4.812l34.935-63.309v104.473
	c0,4.182,0.663,5.065,4.849,5.065h0.225h13.223h4.175c4.188,0,5.284-0.44,5.284-4.625V14.251
	C519.491,10.505,518.395,10.064,514.87,10.064"/>
</svg>
